# xmcd
# Track frame offsets:
# 150
# 14460
# 28845
# 40647
# 54767
# 67212
# 81602
# 94405
# 103977
# 119152
#
# Disc length: 1777 seconds
# Revision: 0
# Processed by: cddbd v1.4PL0 Copyright (c) Steve Scherf et al.
# Submitted via: VisiTrax 2.9.5.180 - For more info visit www.synapsa.com
#
DISCID=9106ef0a
DTITLE=Cindi Cain - A place where memories live
DYEAR=1991
DGENRE=Irsk
TTITLE0=Field of dreams
TTITLE1=Blue shoes
TTITLE2=You'd be gone again
TTITLE3=Look out mountain
TTITLE4=Two more on the dancefloor
TTITLE5=Just a place where memories live
TTITLE6=This time it's love
TTITLE7=Fiddle Texas style
TTITLE8=You were listening to the singer
TTITLE9=Once the magic's gone
EXTD=
EXTT0=
EXTT1=
EXTT2=
EXTT3=
EXTT4=
EXTT5=
EXTT6=
EXTT7=
EXTT8=
EXTT9=
PLAYORDER=
